<svg version="1.1" id="Layer_1" xmlns="http://www.w3.org/2000/svg" xmlns:xlink="http://www.w3.org/1999/xlink" x="0px" y="0px"
	 width="100%" viewBox="0 0 531 148" enable-background="new 0 0 531 148" xml:space="preserve">
<path fill="#ee82ee00" opacity="1.000000" stroke="none" 
	d="
M345.000000,149.000000 
	C230.042145,149.000000 115.584297,149.000000 1.063224,149.000000 
	C1.063224,99.727043 1.063224,50.453987 1.063224,1.090465 
	C177.999985,1.090465 354.999969,1.090465 531.965576,1.090465 
	C531.965576,50.415619 531.965576,99.707825 531.965576,149.000000 
	C469.787384,149.000000 407.643707,149.000000 345.000000,149.000000 
M122.998734,86.256325 
	C124.844154,77.584381 123.786827,68.995712 121.960640,60.502369 
	C119.127914,47.327774 112.510574,36.597340 100.347839,30.140131 
	C89.366478,24.310114 77.556725,23.118614 65.316391,24.975649 
	C49.316967,27.402990 37.623772,35.724522 31.086988,50.500786 
	C25.312067,63.554871 24.947380,77.290756 28.025274,91.106171 
	C31.884111,108.426895 41.706268,120.627686 59.154835,125.571518 
	C69.613327,128.534790 80.263924,128.272522 90.664688,125.366638 
	C96.664581,133.918671 101.960258,136.389450 107.278099,132.768158 
	C109.106171,131.523300 111.327507,128.946503 111.200676,127.129539 
	C110.918541,123.087753 109.267372,119.141518 108.106331,114.908882 
	C115.795265,107.750786 120.451530,98.031364 122.998734,86.256325 
M189.634796,24.992914 
	C184.463776,24.995178 179.230316,24.483320 174.134140,25.102058 
	C161.872879,26.590723 151.220978,31.636873 144.061066,42.050133 
	C133.099670,57.992229 131.595505,75.680077 136.513779,93.889900 
	C140.439316,108.424171 148.971603,119.260002 163.827545,124.483223 
	C171.828842,127.296402 179.967010,127.266579 188.134827,126.936226 
	C204.582138,126.270996 217.233429,118.669327 224.859985,104.141235 
	C233.694107,87.312836 233.284454,69.729019 227.056900,52.041355 
	C221.331512,35.779896 206.390671,26.482315 189.634796,24.992914 
M240.315262,125.800529 
	C255.227921,126.387291 253.854004,124.729752 260.574280,105.001480 
	C267.801849,105.001480 275.120697,105.001480 282.439514,105.001480 
	C295.179779,105.001480 295.427887,104.929184 298.857849,116.701157 
	C301.523163,125.848686 308.956909,127.092361 315.307068,125.780434 
	C321.477966,124.505547 324.511658,116.644081 322.038696,109.242226 
	C317.848328,96.699875 313.615387,84.170799 309.270203,71.681404 
	C305.135986,59.798397 301.259796,47.797752 296.457214,36.185024 
	C293.303589,28.559584 286.059723,24.952244 278.247833,25.257563 
	C270.602783,25.556358 263.100159,28.026436 259.897278,36.509125 
	C257.449829,42.991169 254.859528,49.422340 252.553055,55.953926 
	C246.379379,73.436867 240.221817,90.926926 234.269119,108.485779 
	C231.650284,116.210670 233.012192,121.335106 240.315262,125.800529 
M420.835815,125.999229 
	C430.361664,125.996681 432.577454,124.176414 435.092224,114.886726 
	C436.001953,111.526253 437.406372,108.299706 438.588867,105.001434 
	C447.182922,105.001434 455.511169,105.001427 463.839417,105.001427 
	C473.141724,105.001419 472.908020,105.087982 476.135651,113.801994 
	C477.484100,117.442551 479.390808,121.423492 482.241852,123.830490 
	C486.387970,127.330856 492.978699,126.808922 496.377228,124.078888 
	C501.179199,120.221466 502.471527,115.433105 500.140381,108.605263 
	C492.330017,85.729485 484.429138,62.884583 476.537262,40.036724 
	C473.037781,29.905287 464.781830,25.283083 456.337494,25.087847 
	C447.479034,24.883038 439.031372,31.239202 436.063141,39.911915 
	C427.969208,63.561420 419.961395,87.240578 411.988953,110.931389 
	C409.598602,118.034515 412.642090,123.596794 420.835815,125.999229 
M367.500000,124.999809 
	C377.157318,124.999733 386.829620,125.293777 396.462067,124.804245 
	C399.049377,124.672760 402.479279,122.776276 403.865051,120.623291 
	C408.976227,112.682373 404.070221,104.137222 394.634766,104.028999 
	C383.870789,103.905533 373.104248,104.000420 362.009064,104.000420 
	C362.009064,83.697624 362.059265,63.917301 361.960999,44.137714 
	C361.944092,40.733780 361.548737,37.282166 360.877930,33.943031 
	C359.946686,29.307274 352.331818,24.396412 347.539246,25.011248 
	C341.115417,25.835356 336.012756,31.000526 336.008636,36.800438 
	C335.990082,62.941761 335.983856,89.083122 336.012726,115.224426 
	C336.019684,121.548782 339.560822,124.962128 346.019867,124.992279 
	C352.846436,125.024155 359.673279,124.999680 367.500000,124.999809 
z"/>
<path fill="#C1C1C1" opacity="1.000000" stroke="none" 
	d="
M122.996742,86.699219 
	C120.451530,98.031364 115.795265,107.750786 108.106331,114.908882 
	C109.267372,119.141518 110.918541,123.087753 111.200676,127.129539 
	C111.327507,128.946503 109.106171,131.523300 107.278099,132.768158 
	C101.960258,136.389450 96.664581,133.918671 90.664688,125.366638 
	C80.263924,128.272522 69.613327,128.534790 59.154835,125.571518 
	C41.706268,120.627686 31.884111,108.426895 28.025274,91.106171 
	C24.947380,77.290756 25.312067,63.554871 31.086988,50.500786 
	C37.623772,35.724522 49.316967,27.402990 65.316391,24.975649 
	C77.556725,23.118614 89.366478,24.310114 100.347839,30.140131 
	C112.510574,36.597340 119.127914,47.327774 121.960640,60.502369 
	C123.786827,68.995712 124.844154,77.584381 122.996742,86.699219 
M75.586052,106.092201 
	C72.502174,102.759117 71.756752,96.790756 74.432838,94.147202 
	C76.124741,92.475876 78.644836,89.972626 80.329254,90.291855 
	C84.586617,91.098709 88.581673,93.289558 92.901604,95.013649 
	C96.708443,82.521957 97.033798,69.248810 92.054375,55.974724 
	C89.281830,48.583691 83.317139,44.338936 75.918945,43.932930 
	C66.091995,43.393635 60.717579,49.403149 58.033112,55.668285 
	C54.578323,63.731243 54.218224,72.119835 54.823273,80.839920 
	C55.297298,87.671692 56.612961,93.979446 59.988220,99.879677 
	C63.632599,106.250351 70.769814,109.362755 75.586052,106.092201 
z"/>
<path fill="#C1C1C1" opacity="1.000000" stroke="none" 
	d="
M190.085358,24.996357 
	C206.390671,26.482315 221.331512,35.779896 227.056900,52.041355 
	C233.284454,69.729019 233.694107,87.312836 224.859985,104.141235 
	C217.233429,118.669327 204.582138,126.270996 188.134827,126.936226 
	C179.967010,127.266579 171.828842,127.296402 163.827545,124.483223 
	C148.971603,119.260002 140.439316,108.424171 136.513779,93.889900 
	C131.595505,75.680077 133.099670,57.992229 144.061066,42.050133 
	C151.220978,31.636873 161.872879,26.590723 174.134140,25.102058 
	C179.230316,24.483320 184.463776,24.995178 190.085358,24.996357 
M163.035110,60.945160 
	C162.894562,61.905869 162.824448,62.883167 162.602692,63.824749 
	C159.947830,75.097565 160.443878,86.066841 165.933701,96.480293 
	C169.550262,103.340416 175.380447,107.352921 183.109314,106.854546 
	C191.582413,106.308197 198.021881,102.256241 201.121811,93.649971 
	C205.573898,81.289734 205.357391,68.970589 200.861115,56.859344 
	C197.466843,47.716469 187.340302,43.378792 177.725433,45.603390 
	C169.551208,47.494663 166.463959,53.695263 163.035110,60.945160 
z"/>
<path fill="#C1C1C1" opacity="1.000000" stroke="none" 
	d="
M240.024170,125.511978 
	C233.012192,121.335106 231.650284,116.210670 234.269119,108.485779 
	C240.221817,90.926926 246.379379,73.436867 252.553055,55.953926 
	C254.859528,49.422340 257.449829,42.991169 259.897278,36.509125 
	C263.100159,28.026436 270.602783,25.556358 278.247833,25.257563 
	C286.059723,24.952244 293.303589,28.559584 296.457214,36.185024 
	C301.259796,47.797752 305.135986,59.798397 309.270203,71.681404 
	C313.615387,84.170799 317.848328,96.699875 322.038696,109.242226 
	C324.511658,116.644081 321.477966,124.505547 315.307068,125.780434 
	C308.956909,127.092361 301.523163,125.848686 298.857849,116.701157 
	C295.427887,104.929184 295.179779,105.001480 282.439514,105.001480 
	C275.120697,105.001480 267.801849,105.001480 260.574280,105.001480 
	C253.854004,124.729752 255.227921,126.387291 240.024170,125.511978 
M288.050751,83.272606 
	C284.656738,72.006691 281.262726,60.740776 277.665741,48.801117 
	C273.951477,61.328522 270.497498,72.978043 266.933075,85.000092 
	C272.252289,85.000092 277.066132,85.100128 281.872589,84.955170 
	C284.063721,84.889091 286.240234,84.339211 288.050751,83.272606 
z"/>
<path fill="#C1C1C1" opacity="1.000000" stroke="none" 
	d="
M420.409790,125.998154 
	C412.642090,123.596794 409.598602,118.034515 411.988953,110.931389 
	C419.961395,87.240578 427.969208,63.561420 436.063141,39.911915 
	C439.031372,31.239202 447.479034,24.883038 456.337494,25.087847 
	C464.781830,25.283083 473.037781,29.905287 476.537262,40.036724 
	C484.429138,62.884583 492.330017,85.729485 500.140381,108.605263 
	C502.471527,115.433105 501.179199,120.221466 496.377228,124.078888 
	C492.978699,126.808922 486.387970,127.330856 482.241852,123.830490 
	C479.390808,121.423492 477.484100,117.442551 476.135651,113.801994 
	C472.908020,105.087982 473.141724,105.001419 463.839417,105.001427 
	C455.511169,105.001427 447.182922,105.001434 438.588867,105.001434 
	C437.406372,108.299706 436.001953,111.526253 435.092224,114.886726 
	C432.577454,124.176414 430.361664,125.996681 420.409790,125.998154 
M462.504303,71.002037 
	C460.321381,63.722813 458.138428,56.443592 455.791077,48.616138 
	C452.072601,61.120731 448.590576,72.830139 445.033966,84.790390 
	C452.338013,84.790390 459.428070,84.790390 466.590210,84.790390 
	C465.370544,80.412720 464.156494,76.055130 462.504303,71.002037 
z"/>
<path fill="#C1C1C1" opacity="1.000000" stroke="none" 
	d="
M367.000000,124.999809 
	C359.673279,124.999680 352.846436,125.024155 346.019867,124.992279 
	C339.560822,124.962128 336.019684,121.548782 336.012726,115.224426 
	C335.983856,89.083122 335.990082,62.941761 336.008636,36.800438 
	C336.012756,31.000526 341.115417,25.835356 347.539246,25.011248 
	C352.331818,24.396412 359.946686,29.307274 360.877930,33.943031 
	C361.548737,37.282166 361.944092,40.733780 361.960999,44.137714 
	C362.059265,63.917301 362.009064,83.697624 362.009064,104.000420 
	C373.104248,104.000420 383.870789,103.905533 394.634766,104.028999 
	C404.070221,104.137222 408.976227,112.682373 403.865051,120.623291 
	C402.479279,122.776276 399.049377,124.672760 396.462067,124.804245 
	C386.829620,125.293777 377.157318,124.999733 367.000000,124.999809 
z"/>
<path fill="#ee82ee00" opacity="1.000000" stroke="none" 
	d="
M75.756897,106.468658 
	C70.769814,109.362755 63.632599,106.250351 59.988220,99.879677 
	C56.612961,93.979446 55.297298,87.671692 54.823273,80.839920 
	C54.218224,72.119835 54.578323,63.731243 58.033112,55.668285 
	C60.717579,49.403149 66.091995,43.393635 75.918945,43.932930 
	C83.317139,44.338936 89.281830,48.583691 92.054375,55.974724 
	C97.033798,69.248810 96.708443,82.521957 92.901604,95.013649 
	C88.581673,93.289558 84.586617,91.098709 80.329254,90.291855 
	C78.644836,89.972626 76.124741,92.475876 74.432838,94.147202 
	C71.756752,96.790756 72.502174,102.759117 75.756897,106.468658 
z"/>
<path fill="#ee82ee00" opacity="1.000000" stroke="none" 
	d="
M163.175888,60.560822 
	C166.463959,53.695263 169.551208,47.494663 177.725433,45.603390 
	C187.340302,43.378792 197.466843,47.716469 200.861115,56.859344 
	C205.357391,68.970589 205.573898,81.289734 201.121811,93.649971 
	C198.021881,102.256241 191.582413,106.308197 183.109314,106.854546 
	C175.380447,107.352921 169.550262,103.340416 165.933701,96.480293 
	C160.443878,86.066841 159.947830,75.097565 162.602692,63.824749 
	C162.824448,62.883167 162.894562,61.905869 163.175888,60.560822 
z"/>
<path fill="#ee82ee00" opacity="1.000000" stroke="none" 
	d="
M288.237061,83.640686 
	C286.240234,84.339211 284.063721,84.889091 281.872589,84.955170 
	C277.066132,85.100128 272.252289,85.000092 266.933075,85.000092 
	C270.497498,72.978043 273.951477,61.328522 277.665741,48.801117 
	C281.262726,60.740776 284.656738,72.006691 288.237061,83.640686 
z"/>
<path fill="#ee82ee00" opacity="1.000000" stroke="none" 
	d="
M462.723358,71.349785 
	C464.156494,76.055130 465.370544,80.412720 466.590210,84.790390 
	C459.428070,84.790390 452.338013,84.790390 445.033966,84.790390 
	C448.590576,72.830139 452.072601,61.120731 455.791077,48.616138 
	C458.138428,56.443592 460.321381,63.722813 462.723358,71.349785 
z"/>
</svg>