<?xml version="1.0" encoding="UTF-8"?>
<!DOCTYPE svg PUBLIC "-//W3C//DTD SVG 1.1//EN" "http://www.w3.org/Graphics/SVG/1.1/DTD/svg11.dtd">
<!-- Creator: CorelDRAW -->
<svg xmlns="http://www.w3.org/2000/svg" xml:space="preserve" width="12mm" height="12mm" version="1.1" style="shape-rendering:geometricPrecision; text-rendering:geometricPrecision; image-rendering:optimizeQuality; fill-rule:evenodd; clip-rule:evenodd"
viewBox="0 0 1200 1200"
 xmlns:xlink="http://www.w3.org/1999/xlink"
 xmlns:xodm="http://www.corel.com/coreldraw/odm/2003">
 <defs>
  <style type="text/css">
   <![CDATA[
    .fil1 {fill:#151426;fill-rule:nonzero}
    .fil0 {fill:#FAC237;fill-rule:nonzero}
   ]]>
  </style>
 </defs>
 <g id="Katman_x0020_1">
  <metadata id="CorelCorpID_0Corel-Layer"/>
  <path class="fil0" d="M1087.26 592.69c0,268.34 -218.32,486.71 -486.7,486.71 -268.35,0 -486.67,-218.37 -486.67,-486.71 0,-268.34 218.32,-486.7 486.67,-486.7 268.38,0 486.7,218.36 486.7,486.7z"/>
  <path class="fil1" d="M600.55 1079.4c-268.34,0 -486.66,-218.37 -486.66,-486.71 0,-268.34 218.32,-486.7 486.66,-486.7 268.39,0 486.71,218.36 486.71,486.7 0,268.34 -218.32,486.71 -486.71,486.71zm0 -1057.23c-314.58,0 -570.47,255.94 -570.47,570.52 0,314.58 255.89,570.48 570.47,570.48 314.59,0 570.53,-255.9 570.53,-570.48 0,-314.58 -255.94,-570.52 -570.53,-570.52z"/>
  <path class="fil1" d="M856.36 629.08l3.39 69.22c-47.5,-14.88 -88.82,-37.93 -120.88,-73.17 -9.87,-70.39 53.07,-137.44 68.11,-156.48l172.02 -19.04 -122.64 179.47z"/>
  <path class="fil1" d="M825.97 756.84l-61.58 31.8 -93.78 196.13 -69.73 -158.4c8.86,-22.53 35.35,-110.6 101.18,-137.38 49.42,1.46 90.59,24.45 123.91,67.85z"/>
  <path class="fil1" d="M961.18 727.12c-1.72,4.81 -3.5,9.62 -5.37,14.33 -0.1,0.1 -0.15,0.25 -0.2,0.35 -5.17,13.57 -11.55,26.84 -19.04,39.65 -0.05,0.1 -0.15,0.26 -0.25,0.31 -7.2,12.61 -15.25,24.56 -24.16,35.7 -0.15,0.2 -0.35,0.35 -0.51,0.56 -0.05,0.15 -0.1,0.2 -0.2,0.3 -3.09,4 -6.33,7.95 -9.62,11.85l-75.86 -73.33c-33.32,-43.4 -74.49,-66.39 -123.91,-67.85l-55 -74.24 0.05 0 91.76 10.38c32.06,35.24 73.38,58.29 120.88,73.17l101.43 28.82z"/>
  <path class="fil1" d="M298.9 828.81c-25.62,-28.26 -44.63,-62.38 -58.47,-101.09l101.4 -28.98 3.29 -69.27 -122.98 -179.23 172.07 18.78c15.08,18.98 78.09,85.89 68.39,156.33l91.75 -10.53 0.02 0.04 -54.88 74.28c65.89,26.71 92.47,114.7 101.4,137.23l-69.51 158.51 -94.04 -195.97 -61.69 -31.69 -75.67 73.45c-26.66,-31.31 -46.75,-64.8 -58.47,-101.1l57.39 99.24z"/>
  <path class="fil1" d="M543.07 206.29c37.28,-8.06 76.34,-7.46 116.79,-0.09l-25.61 102.3 58.34 37.49 216.72 -16.89 -102.31 139.62c-23.97,3.57 -113.43,24.68 -169.57,-18.94l-36.76 84.73 -0.05 0 -36.89 -84.67c-56.08,43.71 -145.56,22.73 -169.54,19.2l-102.52 -139.46 216.73 16.55 58.29 -37.58 -25.77 -102.26c40.44,-7.43 79.49,-8.09 116.78,-0.09l-114.63 0.09z"/>
 </g>
</svg>
